<svg xmlns="http://www.w3.org/2000/svg" version="1.1" x="0px" y="0px" viewBox="0 0 99 123.75" style="enable-background:new 0 0 99 99;" xml:space="preserve"><g><path d="M49.4,23.9c-1.6,0-3,0.3-3.8,1.2c-1,0.9-1.4,2.3-1.4,4.5c0,1.2,0.1,2.5,0.3,3.8c0.2,1.5,0.4,3.4,0.9,5.7   c0.3,2.3,0.7,5.1,1.1,8.4c0.3,3.1,0.6,6.7,0.9,11.1c0,0.6,0.6,1.2,1.3,1.2l0,0h1.5c0.7,0,1.3-0.4,1.3-1.2c0.2-4.4,0.6-8.1,1-11.2   c0.3-3.4,0.7-6.2,1.1-8.4c0.3-2.2,0.6-4.2,0.9-5.7c0.2-1.5,0.3-2.8,0.3-3.9c0-2-0.4-3.4-1.4-4.3C52.2,24.2,50.9,23.9,49.4,23.9z"/><path d="M49.3,64.5c-1.5,0-2.8,0.6-3.8,1.6c-1.1,1.1-1.6,2.3-1.6,3.7s0.6,2.7,1.6,3.7c1.1,1.1,2.3,1.5,3.8,1.5s2.7-0.4,3.7-1.5   s1.5-2.2,1.5-3.7c0-1.4-0.4-2.7-1.5-3.7S50.7,64.5,49.3,64.5z"/><path d="M49.5,4.3C24.3,4.3,3.7,24.9,3.7,50.1S24.3,96,49.5,96s45.9-20.6,45.9-45.9S74.8,4.3,49.5,4.3z M49.5,88.3   c-21,0-38.1-17.1-38.1-38.1s17.1-38.1,38.1-38.1s38.1,17.1,38.1,38.1C87.7,71.2,70.6,88.3,49.5,88.3z"/></g><text x="0" y="114" fill="#000000" font-size="5px" font-weight="bold" font-family="'Helvetica Neue', Helvetica, Arial-Unicode, Arial, Sans-serif">Created by Mapps</text><text x="0" y="119" fill="#000000" font-size="5px" font-weight="bold" font-family="'Helvetica Neue', Helvetica, Arial-Unicode, Arial, Sans-serif">from the Noun Project</text></svg>